{
  "accessors": [
    {
      "bufferView": 2,
      "componentType": 5126,
      "count": 42,
      "max": [
        25.0,
        75.00000762939453,
        25.00000762939453
      ],
      "min": [
        -25.0,
        -74.88136291503906,
        0.0
      ],
      "type": "VEC3"
    },
    {
      "bufferView": 2,
      "byteOffset": 504,
      "componentType": 5126,
      "count": 42,
      "max": [
        1.0,
        0.9817056655883789,
        1.0
      ],
      "min": [
        -1.0,
        -0.0,
        -1.0
      ],
      "type": "VEC3"
    },
    {
      "bufferView": 3,
      "componentType": 5126,
      "count": 42,
      "max": [
        0.012784373946487904,
        1.0,
        1.885714596028265e-06,
        1.0
      ],
      "min": [
        -0.025028705596923828,
        -1.0,
        -1.0,
        1.0
      ],
      "type": "VEC4"
    },
    {
      "bufferView": 1,
      "componentType": 5126,
      "count": 42,
      "max": [
        0.927731990814209,
        0.44147199392318726
      ],
      "min": [
        0.3836210072040558,
        0.10404600203037262
      ],
      "type": "VEC2"
    },
    {
      "bufferView": 0,
      "componentType": 5125,
      "count": 96,
      "type": "SCALAR"
    },
    {
      "bufferView": 2,
      "byteOffset": 1008,
      "componentType": 5126,
      "count": 1124,
      "max": [
        120.70339965820313,
        -74.88135528564453,
        134.18435668945313
      ],
      "min": [
        -100.0,
        -150.26785278320313,
        -114.03193664550781
      ],
      "type": "VEC3"
    },
    {
      "bufferView": 2,
      "byteOffset": 14496,
      "componentType": 5126,
      "count": 1124,
      "max": [
        1.0,
        1.0,
        1.0
      ],
      "min": [
        -1.0,
        -1.0,
        -1.0
      ],
      "type": "VEC3"
    },
    {
      "bufferView": 3,
      "byteOffset": 672,
      "componentType": 5126,
      "count": 1124,
      "max": [
        0.9653689861297607,
        1.0,
        0.9559454321861267,
        1.0
      ],
      "min": [
        -0.6946690678596497,
        -1.0,
        -1.0,
        -1.0
      ],
      "type": "VEC4"
    },
    {
      "bufferView": 1,
      "byteOffset": 336,
      "componentType": 5126,
      "count": 1124,
      "max": [
        0.9989749789237976,
        0.9981499910354614
      ],
      "min": [
        0.0005000000237487257,
        0.0005000000237487257
      ],
      "type": "VEC2"
    },
    {
      "bufferView": 0,
      "byteOffset": 384,
      "componentType": 5125,
      "count": 2316,
      "type": "SCALAR"
    },
    {
      "bufferView": 2,
      "byteOffset": 27984,
      "componentType": 5126,
      "count": 930,
      "max": [
        76.85456848144531,
        -60.35435104370117,
        101.41168212890625
      ],
      "min": [
        -74.92243957519531,
        -124.88134002685547,
        18.496002197265625
      ],
      "type": "VEC3"
    },
    {
      "bufferView": 2,
      "byteOffset": 39144,
      "componentType": 5126,
      "count": 930,
      "max": [
        1.0,
        1.0,
        1.0
      ],
      "min": [
        -1.0,
        -3.000000788233592e-06,
        -1.0
      ],
      "type": "VEC3"
    },
    {
      "bufferView": 3,
      "byteOffset": 18656,
      "componentType": 5126,
      "count": 930,
      "max": [
        0.0005357098998501897,
        1.0,
        0.0004711733490694314,
        1.0
      ],
      "min": [
        -0.0005357098998501897,
        -1.0,
        -1.0,
        1.0
      ],
      "type": "VEC4"
    },
    {
      "bufferView": 1,
      "byteOffset": 9328,
      "componentType": 5126,
      "count": 930,
      "max": [
        0.9634289741516113,
        0.7687810063362122
      ],
      "min": [
        0.02638700045645237,
        0.0005000000237487257
      ],
      "type": "VEC2"
    },
    {
      "bufferView": 0,
      "byteOffset": 9648,
      "componentType": 5125,
      "count": 2280,
      "type": "SCALAR"
    },
    {
      "bufferView": 2,
      "byteOffset": 50304,
      "componentType": 5126,
      "count": 312,
      "max": [
        45.925148010253906,
        134.4837646484375,
        50.408851623535156
      ],
      "min": [
        -43.7398681640625,
        -74.88136291503906,
        -23.230281829833984
      ],
      "type": "VEC3"
    },
    {
      "bufferView": 2,
      "byteOffset": 54048,
      "componentType": 5126,
      "count": 312,
      "max": [
        0.9989550113677979,
        1.0,
        0.9988158941268921
      ],
      "min": [
        -0.9989574551582336,
        -0.8154488801956177,
        -0.9988115429878235
      ],
      "type": "VEC3"
    },
    {
      "bufferView": 3,
      "byteOffset": 33536,
      "componentType": 5126,
      "count": 312,
      "max": [
        0.7663993835449219,
        1.0,
        0.7515405416488647,
        1.0
      ],
      "min": [
        -0.9401568174362183,
        -1.0,
        -1.0,
        -1.0
      ],
      "type": "VEC4"
    },
    {
      "bufferView": 1,
      "byteOffset": 16768,
      "componentType": 5126,
      "count": 312,
      "max": [
        0.9980949759483337,
        0.9985669851303101
      ],
      "min": [
        0.0005000000237487257,
        0.0005000000237487257
      ],
      "type": "VEC2"
    },
    {
      "bufferView": 0,
      "byteOffset": 18768,
      "componentType": 5125,
      "count": 624,
      "type": "SCALAR"
    },
    {
      "bufferView": 2,
      "byteOffset": 57792,
      "componentType": 5126,
      "count": 2129,
      "max": [
        91.6497802734375,
        171.43048095703125,
        34.681373596191406
      ],
      "min": [
        -38.46700668334961,
        77.68941497802734,
        -21.68354034423828
      ],
      "type": "VEC3"
    },
    {
      "bufferView": 2,
      "byteOffset": 83340,
      "componentType": 5126,
      "count": 2129,
      "max": [
        0.9986847639083862,
        0.9974111318588257,
        0.9960137605667114
      ],
      "min": [
        -0.9971803426742554,
        -0.9951117634773254,
        -0.9983172416687012
      ],
      "type": "VEC3"
    },
    {
      "bufferView": 3,
      "byteOffset": 38528,
      "componentType": 5126,
      "count": 2129,
      "max": [
        0.7217874526977539,
        0.9999861121177673,
        0.7155135869979858,
        1.0
      ],
      "min": [
        -0.7148706316947937,
        -0.9999876022338867,
        -0.9991227388381958,
        1.0
      ],
      "type": "VEC4"
    },
    {
      "bufferView": 1,
      "byteOffset": 19264,
      "componentType": 5126,
      "count": 2129,
      "max": [
        0.9994999766349792,
        0.9956589937210083
      ],
      "min": [
        0.01603199914097786,
        0.10922399908304214
      ],
      "type": "VEC2"
    },
    {
      "bufferView": 0,
      "byteOffset": 21264,
      "componentType": 5125,
      "count": 2358,
      "type": "SCALAR"
    },
    {
      "bufferView": 2,
      "byteOffset": 108888,
      "componentType": 5126,
      "count": 1063,
      "max": [
        79.50862121582031,
        135.19921875,
        13.448807716369629
      ],
      "min": [
        -84.89875793457031,
        -155.5849151611328,
        -80.94381713867188
      ],
      "type": "VEC3"
    },
    {
      "bufferView": 2,
      "byteOffset": 121644,
      "componentType": 5126,
      "count": 1063,
      "max": [
        0.9989624619483948,
        0.9999759793281555,
        0.9995777606964111
      ],
      "min": [
        -0.6496437788009644,
        -0.5143520832061768,
        -0.9832391142845154
      ],
      "type": "VEC3"
    },
    {
      "bufferView": 3,
      "byteOffset": 72592,
      "componentType": 5126,
      "count": 1063,
      "max": [
        0.2417675405740738,
        0.9999914169311523,
        0.9595152735710144,
        1.0
      ],
      "min": [
        -0.9654288291931152,
        -0.9999947547912598,
        -1.0,
        -1.0
      ],
      "type": "VEC4"
    },
    {
      "bufferView": 1,
      "byteOffset": 36296,
      "componentType": 5126,
      "count": 1063,
      "max": [
        0.94057697057724,
        0.993632972240448
      ],
      "min": [
        0.08333700150251389,
        0.021208999678492546
      ],
      "type": "VEC2"
    },
    {
      "bufferView": 0,
      "byteOffset": 30696,
      "componentType": 5125,
      "count": 3936,
      "type": "SCALAR"
    }
  ],
  "asset": {
    "extras": {
      "author": "mdsz13 (https://sketchfab.com/shaz13)",
      "license": "CC-BY-4.0 (http://creativecommons.org/licenses/by/4.0/)",
      "source": "https://sketchfab.com/3d-models/post-apocalyptic-demon-cult-shrine-e3c29346ae6c4aa2bf71ffe4b17273fb",
      "title": "Post Apocalyptic Demon Cult Shrine"
    },
    "generator": "Sketchfab-12.20.0",
    "version": "2.0"
  },
  "bufferViews": [
    {
      "buffer": 0,
      "byteLength": 46440,
      "name": "floatBufferViews",
      "target": 34963
    },
    {
      "buffer": 0,
      "byteLength": 44800,
      "byteOffset": 46440,
      "byteStride": 8,
      "name": "floatBufferViews",
      "target": 34962
    },
    {
      "buffer": 0,
      "byteLength": 134400,
      "byteOffset": 91240,
      "byteStride": 12,
      "name": "floatBufferViews",
      "target": 34962
    },
    {
      "buffer": 0,
      "byteLength": 89600,
      "byteOffset": 225640,
      "byteStride": 16,
      "name": "floatBufferViews",
      "target": 34962
    }
  ],
  "buffers": [
    {
      "byteLength": 315240,
      "uri": "scene.bin"
    }
  ],
  "images": [
    {
      "uri": "textures/monolith_baseColor.jpeg"
    },
    {
      "uri": "textures/monolith_metallicRoughness.png"
    },
    {
      "uri": "textures/monolith_normal.png"
    },
    {
      "uri": "textures/base_baseColor.jpeg"
    },
    {
      "uri": "textures/base_metallicRoughness.png"
    },
    {
      "uri": "textures/base_normal.png"
    },
    {
      "uri": "textures/candle_baseColor.jpeg"
    },
    {
      "uri": "textures/candle_metallicRoughness.png"
    },
    {
      "uri": "textures/candle_normal.png"
    },
    {
      "uri": "textures/wood_baseColor.jpeg"
    },
    {
      "uri": "textures/wood_metallicRoughness.png"
    },
    {
      "uri": "textures/wood_normal.png"
    },
    {
      "uri": "textures/skull_baseColor.jpeg"
    },
    {
      "uri": "textures/skull_metallicRoughness.png"
    },
    {
      "uri": "textures/skull_normal.png"
    },
    {
      "uri": "textures/cloth_baseColor.jpeg"
    },
    {
      "uri": "textures/cloth_metallicRoughness.png"
    },
    {
      "uri": "textures/cloth_normal.png"
    }
  ],
  "materials": [
    {
      "doubleSided": true,
      "name": "monolith",
      "normalTexture": {
        "index": 2
      },
      "occlusionTexture": {
        "index": 1
      },
      "pbrMetallicRoughness": {
        "baseColorTexture": {
          "index": 0
        },
        "metallicRoughnessTexture": {
          "index": 1
        }
      }
    },
    {
      "doubleSided": true,
      "name": "base",
      "normalTexture": {
        "index": 5
      },
      "occlusionTexture": {
        "index": 4
      },
      "pbrMetallicRoughness": {
        "baseColorTexture": {
          "index": 3
        },
        "metallicRoughnessTexture": {
          "index": 4
        }
      }
    },
    {
      "doubleSided": true,
      "name": "candle",
      "normalTexture": {
        "index": 8
      },
      "occlusionTexture": {
        "index": 7
      },
      "pbrMetallicRoughness": {
        "baseColorTexture": {
          "index": 6
        },
        "metallicRoughnessTexture": {
          "index": 7
        }
      }
    },
    {
      "doubleSided": true,
      "name": "wood",
      "normalTexture": {
        "index": 11
      },
      "occlusionTexture": {
        "index": 10
      },
      "pbrMetallicRoughness": {
        "baseColorTexture": {
          "index": 9
        },
        "metallicRoughnessTexture": {
          "index": 10
        }
      }
    },
    {
      "doubleSided": true,
      "name": "skull",
      "normalTexture": {
        "index": 14
      },
      "occlusionTexture": {
        "index": 13
      },
      "pbrMetallicRoughness": {
        "baseColorTexture": {
          "index": 12
        },
        "metallicRoughnessTexture": {
          "index": 13
        }
      }
    },
    {
      "doubleSided": true,
      "name": "cloth",
      "normalTexture": {
        "index": 17
      },
      "occlusionTexture": {
        "index": 16
      },
      "pbrMetallicRoughness": {
        "baseColorTexture": {
          "index": 15
        },
        "metallicRoughnessTexture": {
          "index": 16
        }
      }
    }
  ],
  "meshes": [
    {
      "name": "defaultMaterial",
      "primitives": [
        {
          "attributes": {
            "NORMAL": 1,
            "POSITION": 0,
            "TANGENT": 2,
            "TEXCOORD_0": 3
          },
          "indices": 4,
          "material": 0,
          "mode": 4
        }
      ]
    },
    {
      "name": "defaultMaterial",
      "primitives": [
        {
          "attributes": {
            "NORMAL": 6,
            "POSITION": 5,
            "TANGENT": 7,
            "TEXCOORD_0": 8
          },
          "indices": 9,
          "material": 1,
          "mode": 4
        }
      ]
    },
    {
      "name": "defaultMaterial",
      "primitives": [
        {
          "attributes": {
            "NORMAL": 11,
            "POSITION": 10,
            "TANGENT": 12,
            "TEXCOORD_0": 13
          },
          "indices": 14,
          "material": 2,
          "mode": 4
        }
      ]
    },
    {
      "name": "defaultMaterial",
      "primitives": [
        {
          "attributes": {
            "NORMAL": 16,
            "POSITION": 15,
            "TANGENT": 17,
            "TEXCOORD_0": 18
          },
          "indices": 19,
          "material": 3,
          "mode": 4
        }
      ]
    },
    {
      "name": "defaultMaterial",
      "primitives": [
        {
          "attributes": {
            "NORMAL": 21,
            "POSITION": 20,
            "TANGENT": 22,
            "TEXCOORD_0": 23
          },
          "indices": 24,
          "material": 4,
          "mode": 4
        }
      ]
    },
    {
      "name": "defaultMaterial",
      "primitives": [
        {
          "attributes": {
            "NORMAL": 26,
            "POSITION": 25,
            "TANGENT": 27,
            "TEXCOORD_0": 28
          },
          "indices": 29,
          "material": 5,
          "mode": 4
        }
      ]
    }
  ],
  "nodes": [
    {
      "children": [
        1
      ],
      "matrix": [
        1.0,
        0.0,
        0.0,
        0.0,
        0.0,
        2.220446049250313e-16,
        -1.0,
        0.0,
        0.0,
        1.0,
        2.220446049250313e-16,
        0.0,
        0.0,
        0.0,
        0.0,
        1.0
      ],
      "name": "Sketchfab_model"
    },
    {
      "children": [
        2
      ],
      "matrix": [
        1.0,
        0.0,
        0.0,
        0.0,
        0.0,
        -4.371139006309477e-08,
        0.999999999999999,
        0.0,
        0.0,
        -0.999999999999999,
        -4.371139006309477e-08,
        0.0,
        0.0,
        0.0,
        0.0,
        1.0
      ],
      "name": "Collada visual scene group"
    },
    {
      "children": [
        3,
        4,
        5,
        6,
        7,
        8
      ],
      "matrix": [
        1.0,
        0.0,
        0.0,
        0.0,
        0.0,
        1.0,
        0.0,
        0.0,
        0.0,
        0.0,
        1.0,
        0.0,
        -1e-06,
        149.881363,
        -12.167428,
        1.0
      ],
      "name": "Box001"
    },
    {
      "mesh": 0,
      "name": "defaultMaterial"
    },
    {
      "mesh": 1,
      "name": "defaultMaterial"
    },
    {
      "mesh": 2,
      "name": "defaultMaterial"
    },
    {
      "mesh": 3,
      "name": "defaultMaterial"
    },
    {
      "mesh": 4,
      "name": "defaultMaterial"
    },
    {
      "mesh": 5,
      "name": "defaultMaterial"
    }
  ],
  "samplers": [
    {
      "magFilter": 9729,
      "minFilter": 9987,
      "wrapS": 10497,
      "wrapT": 10497
    }
  ],
  "scene": 0,
  "scenes": [
    {
      "name": "Sketchfab_Scene",
      "nodes": [
        0
      ]
    }
  ],
  "textures": [
    {
      "sampler": 0,
      "source": 0
    },
    {
      "sampler": 0,
      "source": 1
    },
    {
      "sampler": 0,
      "source": 2
    },
    {
      "sampler": 0,
      "source": 3
    },
    {
      "sampler": 0,
      "source": 4
    },
    {
      "sampler": 0,
      "source": 5
    },
    {
      "sampler": 0,
      "source": 6
    },
    {
      "sampler": 0,
      "source": 7
    },
    {
      "sampler": 0,
      "source": 8
    },
    {
      "sampler": 0,
      "source": 9
    },
    {
      "sampler": 0,
      "source": 10
    },
    {
      "sampler": 0,
      "source": 11
    },
    {
      "sampler": 0,
      "source": 12
    },
    {
      "sampler": 0,
      "source": 13
    },
    {
      "sampler": 0,
      "source": 14
    },
    {
      "sampler": 0,
      "source": 15
    },
    {
      "sampler": 0,
      "source": 16
    },
    {
      "sampler": 0,
      "source": 17
    }
  ]
}
